<?xml version="1.0" encoding="UTF-8" standalone="no"?>
<!-- Created with Inkscape (http://www.inkscape.org/) -->
<svg
   xmlns:dc="http://purl.org/dc/elements/1.1/"
   xmlns:cc="http://creativecommons.org/ns#"
   xmlns:rdf="http://www.w3.org/1999/02/22-rdf-syntax-ns#"
   xmlns:svg="http://www.w3.org/2000/svg"
   xmlns="http://www.w3.org/2000/svg"
   xmlns:sodipodi="http://sodipodi.sourceforge.net/DTD/sodipodi-0.dtd"
   xmlns:inkscape="http://www.inkscape.org/namespaces/inkscape"
   width="64"
   height="32"
   id="svg2"
   sodipodi:version="0.32"
   inkscape:version="0.45.1+0.46pre1"
   version="1.0"
   sodipodi:docbase="/home/digger/public_html/mariposa/images"
   sodipodi:docname="buttonSymbol.svg"
   inkscape:output_extension="org.inkscape.output.svg.inkscape"
   inkscape:export-filename="/home/digger/src/SVN/mess/trunk/mess/media/images/X16.png"
   inkscape:export-xdpi="45"
   inkscape:export-ydpi="45"
   style="display:inline">
  <defs
     id="defs4">
    <inkscape:perspective
       sodipodi:type="inkscape:persp3d"
       inkscape:vp_x="-50 : 600 : 1"
       inkscape:vp_y="0 : 1000 : 0"
       inkscape:vp_z="700 : 600 : 1"
       inkscape:persp3d-origin="300 : 400 : 1"
       id="perspective2450" />
    <inkscape:perspective
       sodipodi:type="inkscape:persp3d"
       inkscape:vp_x="-50 : 600 : 1"
       inkscape:vp_y="0 : 1000 : 0"
       inkscape:vp_z="700 : 600 : 1"
       inkscape:persp3d-origin="300 : 400 : 1"
       id="perspective2518" />
  </defs>
  <sodipodi:namedview
     id="base"
     pagecolor="#ffffff"
     bordercolor="#666666"
     borderopacity="1.0"
     gridtolerance="10000"
     guidetolerance="10"
     objecttolerance="10"
     inkscape:pageopacity="0.0"
     inkscape:pageshadow="2"
     inkscape:zoom="12.21875"
     inkscape:cx="35.914052"
     inkscape:cy="13.191795"
     inkscape:document-units="px"
     inkscape:current-layer="layer16"
     width="128px"
     height="128px"
     inkscape:window-width="1280"
     inkscape:window-height="805"
     inkscape:window-x="0"
     inkscape:window-y="24"
     showgrid="false" />
  <metadata
     id="metadata7">
    <rdf:RDF>
      <cc:Work
         rdf:about="">
        <dc:format>image/svg+xml</dc:format>
        <dc:type
           rdf:resource="http://purl.org/dc/dcmitype/StillImage" />
      </cc:Work>
    </rdf:RDF>
  </metadata>
  <g
     inkscape:groupmode="layer"
     id="layer15"
     inkscape:label="button"
     style="display:inline">
    <rect
       style="fill:#008080;fill-rule:evenodd;stroke:#000000;stroke-width:0.34968984px;stroke-linecap:butt;stroke-linejoin:miter;stroke-opacity:1;display:inline"
       id="rect2521"
       width="31.650311"
       height="31.650309"
       x="26.752851"
       y="-0.56172764"
       ry="5.7546015"
       inkscape:export-filename="/home/digger/src/SVN/mess/trunk/mess/media/images/Plus16.png"
       inkscape:export-xdpi="90"
       inkscape:export-ydpi="90" />
  </g>
  <g
     inkscape:groupmode="layer"
     id="layer1"
     inkscape:label="edit"
     style="display:none">
    <g
       id="g2488"
       transform="matrix(0.9396926,0.3420202,-0.3420202,0.9396926,5.5306644,-9.7237997)"
       inkscape:export-filename="/home/digger/src/SVN/mess/trunk/mess/media/images/Pencil32.png"
       inkscape:export-xdpi="90"
       inkscape:export-ydpi="90">
      <path
         id="rect2453"
         d="M 29.649536,3.40625 C 28.772819,3.40625 28.0625,3.9815487 28.0625,4.6916162 L 28.0625,23.972109 C 28.0625,24.194005 28.144437,24.383716 28.265966,24.565355 C 28.357034,24.039171 28.941733,23.60957 29.69023,23.60957 C 30.394294,23.609569 30.971262,23.98575 31.114493,24.466481 C 31.194361,24.313036 31.236573,24.149626 31.236573,23.972109 L 31.236573,4.6916162 C 31.236573,3.9815489 30.526255,3.40625 29.649536,3.40625 z" />
      <path
         transform="matrix(1.1224017,0,0,1.6584172,-3.1522821,-17.589816)"
         d="M 29.22467,27.48609 L 28.64832,26.487822 L 28.071969,25.489553 L 29.22467,25.489553 L 30.377372,25.489553 L 29.801021,26.487822 L 29.22467,27.48609 z"
         inkscape:randomized="0"
         inkscape:rounded="0"
         inkscape:flatsided="false"
         sodipodi:arg2="2.6179939"
         sodipodi:arg1="1.5707963"
         sodipodi:r2="0.66551226"
         sodipodi:r1="1.3310246"
         sodipodi:cy="26.155066"
         sodipodi:cx="29.22467"
         sodipodi:sides="3"
         id="path2457"
         sodipodi:type="star"
         style="display:inline" />
      <path
         transform="matrix(-0.8198934,0,0,-0.5273298,60.775261,29.899593)"
         sodipodi:end="3.1415927"
         sodipodi:start="0"
         d="M 39.525642,9.8934183 A 1.562507,1.2731539 0 1 1 36.400628,9.8934183 L 37.963135,9.8934183 z"
         sodipodi:ry="1.2731539"
         sodipodi:rx="1.562507"
         sodipodi:cy="9.8934183"
         sodipodi:cx="37.963135"
         id="path2486"
         sodipodi:type="arc" />
    </g>
    <path
       id="path2493"
       d="M 24.765006,26.814628 C 24.950688,26.793245 25.129423,26.743829 25.311505,26.703905 C 25.486108,26.651933 25.656191,26.585992 25.832048,26.538563 C 26.012885,26.494127 26.192996,26.447876 26.372491,26.397078 C 26.553673,26.360357 26.718144,26.273997 26.893651,26.219251 C 27.078563,26.151188 27.268658,26.09606 27.451411,26.022497 C 27.630125,25.962944 27.814301,25.91745 27.998989,25.879871 C 28.208704,25.820239 28.421473,25.76501 28.636284,25.72613 C 28.865142,25.65003 29.107266,25.638525 29.341583,25.590777 C 29.560828,25.54163 29.785097,25.525664 30.008925,25.515688 C 30.223249,25.509166 30.437777,25.508041 30.652196,25.509022 C 30.865616,25.509553 31.07904,25.509098 31.292458,25.510113 C 31.507446,25.510043 31.722427,25.510356 31.937415,25.509518 C 32.147284,25.513154 32.354288,25.555722 32.56358,25.573777 C 32.771762,25.58802 32.976509,25.634894 33.178473,25.68575 C 33.372398,25.73505 33.564839,25.790365 33.757109,25.846513 C 33.952294,25.898766 34.146579,25.95312 34.340186,26.010963 C 34.513717,26.074658 34.684705,26.149096 34.86395,26.195189 C 35.064267,26.258698 35.26732,26.317414 35.473204,26.360443 C 35.702236,26.417423 35.92379,26.499103 36.150404,26.564084 C 36.403932,26.625726 36.66231,26.66483 36.916726,26.72206 C 37.164353,26.765207 37.406218,26.832401 37.65508,26.86875 C 37.884834,26.926499 38.119319,26.956859 38.355244,26.972922 C 38.592092,27.017015 38.831276,27.041942 39.07161,27.055453 C 39.309569,27.068412 39.544484,27.111066 39.782295,27.130153 C 39.999801,27.144444 40.217868,27.146568 40.435767,27.147068 C 40.637392,27.147654 40.839011,27.146979 41.040635,27.146058 C 41.234947,27.147128 41.429263,27.146006 41.623576,27.145434 C 41.797305,27.137531 41.96561,27.144087 42.136085,27.176127 C 42.29652,27.207799 42.459747,27.217796 42.622803,27.223604 C 42.784981,27.26181 42.949204,27.285963 43.115172,27.298792 C 43.230279,27.337251 43.352561,27.347586 43.465045,27.392078 L 42.464475,28.07099 C 42.355411,28.042663 42.245355,28.015527 42.13415,27.997511 C 41.970108,27.979239 41.808912,27.944431 41.644951,27.926931 C 41.479033,27.916986 41.313941,27.899145 41.150537,27.867913 C 40.984857,27.844712 40.817966,27.853761 40.651051,27.852048 C 40.457073,27.851559 40.263089,27.850588 40.069113,27.852082 C 39.868011,27.851622 39.666903,27.851926 39.465808,27.850593 C 39.247106,27.847573 39.028262,27.843939 38.810326,27.823492 C 38.573668,27.801247 38.339165,27.758505 38.101291,27.750628 C 37.860447,27.732131 37.621789,27.699263 37.38244,27.667618 C 37.145436,27.644926 36.911662,27.604305 36.678807,27.55467 C 36.430681,27.51166 36.187336,27.445948 35.939492,27.401103 C 35.681651,27.349 35.421674,27.305138 35.167501,27.23654 C 34.942284,27.170128 34.719228,27.09575 34.49044,27.042023 C 34.283065,26.992974 34.077385,26.936099 33.873636,26.873761 C 33.696173,26.819248 33.524446,26.747919 33.348947,26.687471 C 33.156222,26.62816 32.960599,26.579168 32.766844,26.523348 C 32.576461,26.466309 32.383837,26.416665 32.191537,26.366648 C 31.993352,26.3179 31.791431,26.283834 31.587768,26.268631 C 31.381301,26.246986 31.175755,26.207025 30.967393,26.214271 C 30.753069,26.213399 30.53875,26.21369 30.324426,26.21331 C 30.110734,26.213972 29.897039,26.212839 29.683346,26.21301 C 29.470453,26.214199 29.25744,26.212509 29.044762,26.224129 C 28.823852,26.238047 28.604373,26.264709 28.387508,26.309997 C 28.151322,26.346216 27.916016,26.384799 27.684889,26.446993 C 27.470148,26.495652 27.256993,26.55089 27.043886,26.606096 C 26.862239,26.649632 26.680208,26.694863 26.505678,26.762253 C 26.318041,26.825945 26.131971,26.893989 25.944352,26.957765 C 25.772219,27.021587 25.601147,27.088694 25.421349,27.12884 C 25.241296,27.1793 25.059053,27.221424 24.879374,27.273366 C 24.706098,27.329017 24.533385,27.387176 24.356503,27.430663 C 24.16756,27.474499 23.977231,27.516853 23.78302,27.528082 L 24.765006,26.814628 z"
       inkscape:export-filename="/home/digger/src/SVN/mess/trunk/mess/media/images/Pencil32.png"
       inkscape:export-xdpi="90"
       inkscape:export-ydpi="90" />
    <path
       style="display:inline"
       id="path2499"
       d="M 25.719418,27.844533 C 25.866495,27.828614 26.00807,27.791825 26.152295,27.762103 C 26.290597,27.723411 26.425318,27.67432 26.564612,27.63901 C 26.707852,27.605929 26.850516,27.571496 26.992692,27.533678 C 27.136205,27.506341 27.266481,27.442048 27.405499,27.401291 C 27.551966,27.35062 27.702538,27.309579 27.847295,27.254813 C 27.988853,27.210478 28.134737,27.176608 28.281027,27.148632 C 28.44714,27.104238 28.615673,27.063121 28.785822,27.034176 C 28.967099,26.977522 29.158883,26.968956 29.344483,26.933409 C 29.518145,26.896821 29.695787,26.884934 29.873079,26.877508 C 30.042843,26.872652 30.212769,26.871815 30.382608,26.872545 C 30.551656,26.87294 30.720707,26.872601 30.889754,26.873357 C 31.060044,26.873305 31.230328,26.873538 31.400618,26.872914 C 31.566854,26.875621 31.73082,26.907312 31.896598,26.920753 C 32.061497,26.931357 32.223675,26.966253 32.383649,27.004114 C 32.537255,27.040817 32.689686,27.081997 32.841981,27.123798 C 32.996586,27.162699 33.150477,27.203164 33.303831,27.246226 C 33.441284,27.293646 33.576722,27.349063 33.7187,27.383378 C 33.877369,27.430658 34.038206,27.474371 34.201285,27.506405 C 34.382699,27.548825 34.55819,27.609633 34.737689,27.65801 C 34.938506,27.703901 35.143165,27.733013 35.344685,27.775619 C 35.540828,27.807741 35.732407,27.857765 35.929529,27.884825 C 36.111515,27.927818 36.297248,27.95042 36.484122,27.962379 C 36.671727,27.995205 36.861183,28.013762 37.051549,28.023821 C 37.240034,28.033468 37.426109,28.065223 37.614476,28.079433 C 37.786761,28.090072 37.95949,28.091653 38.132086,28.092026 C 38.291791,28.092462 38.451492,28.091959 38.611196,28.091274 C 38.765109,28.09207 38.919025,28.091235 39.072938,28.090809 C 39.210548,28.084926 39.34386,28.089806 39.478892,28.113659 C 39.605971,28.137238 39.735262,28.144681 39.864417,28.149005 C 39.992877,28.177448 40.122956,28.195429 40.254418,28.20498 C 40.345593,28.233612 40.442452,28.241306 40.531549,28.274429 L 39.739007,28.779861 C 39.652618,28.758772 39.565444,28.73857 39.477359,28.725157 C 39.347423,28.711554 39.219741,28.685641 39.089869,28.672613 C 38.958447,28.665209 38.827679,28.651927 38.698249,28.628675 C 38.567015,28.611403 38.434822,28.618139 38.30261,28.616864 C 38.148962,28.6165 37.995309,28.615777 37.841662,28.616889 C 37.682371,28.616547 37.523076,28.616773 37.36379,28.615781 C 37.190558,28.613533 37.017214,28.610827 36.844589,28.595605 C 36.657134,28.579044 36.471386,28.547224 36.282968,28.54136 C 36.092198,28.527589 35.903159,28.50312 35.713573,28.479561 C 35.525844,28.462667 35.340674,28.432426 35.156232,28.395474 C 34.959693,28.363455 34.766942,28.314534 34.570627,28.281148 C 34.366394,28.242359 34.160468,28.209705 33.95914,28.158635 C 33.780748,28.109193 33.604067,28.053821 33.422846,28.013823 C 33.258586,27.977307 33.095669,27.934965 32.934281,27.888556 C 32.793714,27.847973 32.657691,27.79487 32.51868,27.749868 C 32.366024,27.705713 32.211073,27.66924 32.057601,27.627683 C 31.906801,27.585219 31.754225,27.54826 31.601906,27.511024 C 31.444925,27.474733 31.284986,27.449371 31.123666,27.438053 C 30.960125,27.421939 30.797314,27.392189 30.632273,27.397584 C 30.462509,27.396934 30.292748,27.397151 30.122984,27.396868 C 29.953721,27.397361 29.784455,27.396518 29.615191,27.396645 C 29.44656,27.39753 29.277834,27.396272 29.109374,27.404923 C 28.934393,27.415284 28.760546,27.435133 28.588769,27.468849 C 28.401688,27.495813 28.215305,27.524537 28.032231,27.570839 C 27.862137,27.607064 27.693298,27.648187 27.524498,27.689287 C 27.380617,27.721698 27.236432,27.755371 27.098189,27.805541 C 26.949563,27.852958 26.802179,27.903615 26.653567,27.951095 C 26.517222,27.998608 26.381718,28.048568 26.239302,28.078455 C 26.096683,28.116022 25.95233,28.147382 25.810008,28.186051 C 25.672758,28.227482 25.535953,28.27078 25.395847,28.303154 C 25.246187,28.335789 25.095429,28.367321 24.941596,28.37568 L 25.719418,27.844533 z"
       inkscape:export-filename="/home/digger/src/SVN/mess/trunk/mess/media/images/Pencil32.png"
       inkscape:export-xdpi="90"
       inkscape:export-ydpi="90" />
  </g>
  <g
     inkscape:groupmode="layer"
     id="layer17"
     inkscape:label="-"
     style="display:none">
    <rect
       style="display:inline"
       id="rect2527"
       width="25.616367"
       height="3.5191817"
       x="20.787725"
       y="14.526854"
       ry="1.7595909"
       inkscape:export-filename="/home/digger/src/SVN/mess/trunk/mess/media/images/Minus32.png"
       inkscape:export-xdpi="90"
       inkscape:export-ydpi="90" />
  </g>
  <g
     inkscape:groupmode="layer"
     id="layer18"
     inkscape:label="x"
     style="display:none" />
  <g
     inkscape:groupmode="layer"
     id="layer16"
     inkscape:label="+"
     style="display:inline">
    <rect
       style="display:inline"
       id="rect2529"
       width="25.616367"
       height="3.5191817"
       x="29.769823"
       y="13.503836"
       ry="1.7595909"
       inkscape:export-filename="/home/digger/src/SVN/mess/trunk/mess/media/images/Plus16.png"
       inkscape:export-xdpi="90"
       inkscape:export-ydpi="90" />
    <rect
       style="display:inline"
       id="rect2537"
       width="25.616367"
       height="3.5191817"
       x="2.4552429"
       y="-44.337597"
       ry="1.7595909"
       transform="matrix(0,1,-1,0,0,0)"
       inkscape:export-filename="/home/digger/src/SVN/mess/trunk/mess/media/images/Plus16.png"
       inkscape:export-xdpi="90"
       inkscape:export-ydpi="90" />
  </g>
</svg>
